<svg width="24" height="24" viewBox="0 0 24 24" fill="none" xmlns="http://www.w3.org/2000/svg">
<path d="M21.1233 15.5559C20.3095 14.1562 19.8773 12.1472 19.8773 9.75C19.8773 7.66142 19.0477 5.65838 17.5708 4.18153C16.094 2.70469 14.0909 1.875 12.0023 1.875C9.91377 1.875 7.91073 2.70469 6.43388 4.18153C4.95703 5.65838 4.12735 7.66142 4.12735 9.75C4.12735 12.1481 3.69703 14.1562 2.88328 15.5559C2.71723 15.8414 2.62922 16.1656 2.62806 16.4958C2.62691 16.8261 2.71267 17.1509 2.87672 17.4375C3.03974 17.7243 3.27634 17.9624 3.56211 18.1272C3.84789 18.292 4.17247 18.3775 4.50235 18.375H7.89422C7.98725 19.4003 8.46029 20.3537 9.22043 21.048C9.98057 21.7423 10.9729 22.1273 12.0023 22.1273C13.0318 22.1273 14.0241 21.7423 14.7843 21.048C15.5444 20.3537 16.0174 19.4003 16.1105 18.375H19.5023C19.8317 18.377 20.1557 18.2913 20.441 18.1265C20.7262 17.9617 20.9624 17.7239 21.1252 17.4375C21.2899 17.1513 21.3765 16.8267 21.3762 16.4965C21.3758 16.1662 21.2886 15.8418 21.1233 15.5559ZM12.0023 19.875C11.5701 19.8751 11.1511 19.7258 10.8163 19.4525C10.4814 19.1791 10.2513 18.7985 10.1648 18.375H13.8398C13.7534 18.7985 13.5233 19.1791 13.1884 19.4525C12.8536 19.7258 12.4346 19.8751 12.0023 19.875ZM5.12672 16.125C5.95641 14.4375 6.37735 12.2944 6.37735 9.75C6.37735 8.25816 6.96998 6.82742 8.02487 5.77252C9.07976 4.71763 10.5105 4.125 12.0023 4.125C13.4942 4.125 14.9249 4.71763 15.9798 5.77252C17.0347 6.82742 17.6273 8.25816 17.6273 9.75C17.6273 12.2934 18.0473 14.4375 18.877 16.125H5.12672Z" fill="black"/>
</svg>
