<svg width="24" height="24" viewBox="0 0 24 24" fill="none" xmlns="http://www.w3.org/2000/svg">
<path d="M21.323 3.73685C21.3069 3.46162 21.1903 3.20188 20.9954 3.00694C20.8004 2.812 20.5407 2.69542 20.2655 2.67935C16.553 2.46091 13.2727 2.89872 10.5155 3.97966C7.87736 5.01372 5.84392 6.61685 4.63267 8.6156C2.98079 11.3447 2.97704 14.6578 4.59048 17.8209L2.95642 19.455C2.85177 19.5596 2.76876 19.6839 2.71213 19.8206C2.65549 19.9573 2.62634 20.1039 2.62634 20.2519C2.62634 20.3998 2.65549 20.5464 2.71213 20.6831C2.76876 20.8198 2.85177 20.9441 2.95642 21.0487C3.16776 21.2601 3.45441 21.3788 3.75329 21.3788C3.90129 21.3788 4.04783 21.3497 4.18456 21.293C4.32129 21.2364 4.44552 21.1534 4.55017 21.0487L6.18423 19.4147C7.75361 20.2153 9.36048 20.6193 10.9139 20.6193C12.4922 20.6243 14.0411 20.1927 15.3895 19.3725C17.3883 18.1612 18.9914 16.1268 20.0255 13.4897C21.1036 10.7306 21.5414 7.44935 21.323 3.73685ZM14.2205 17.445C12.337 18.5859 10.1274 18.6722 7.87173 17.7187L15.7974 9.7931C15.902 9.68845 15.985 9.56422 16.0416 9.42749C16.0983 9.29076 16.1274 9.14422 16.1274 8.99622C16.1274 8.84823 16.0983 8.70169 16.0416 8.56496C15.985 8.42823 15.902 8.304 15.7974 8.19935C15.6927 8.0947 15.5685 8.01169 15.4317 7.95506C15.295 7.89842 15.1485 7.86927 15.0005 7.86927C14.8525 7.86927 14.7059 7.89842 14.5692 7.95506C14.4325 8.01169 14.3083 8.0947 14.2036 8.19935L6.28361 16.1306C5.33298 13.8806 5.41923 11.6653 6.56486 9.78185C8.52517 6.54466 13.178 4.7456 19.1274 4.88341C19.2567 10.8309 17.4577 15.4847 14.2205 17.445Z" fill="black"/>
</svg>
