<svg width="24" height="24" viewBox="0 0 24 24" fill="none" xmlns="http://www.w3.org/2000/svg">
<path d="M19.5023 7.125H16.8773V5.25C16.8773 3.95707 16.3637 2.71709 15.4495 1.80285C14.5352 0.888615 13.2952 0.375 12.0023 0.375C10.7094 0.375 9.46941 0.888615 8.55517 1.80285C7.64093 2.71709 7.12732 3.95707 7.12732 5.25V7.125H4.50232C4.00504 7.125 3.52812 7.32254 3.17649 7.67417C2.82486 8.02581 2.62732 8.50272 2.62732 9V19.5C2.62732 19.9973 2.82486 20.4742 3.17649 20.8258C3.52812 21.1775 4.00504 21.375 4.50232 21.375H19.5023C19.9996 21.375 20.4765 21.1775 20.8281 20.8258C21.1798 20.4742 21.3773 19.9973 21.3773 19.5V9C21.3773 8.50272 21.1798 8.02581 20.8281 7.67417C20.4765 7.32254 19.9996 7.125 19.5023 7.125ZM9.37732 5.25C9.37732 4.55381 9.65388 3.88613 10.1462 3.39384C10.6384 2.90156 11.3061 2.625 12.0023 2.625C12.6985 2.625 13.3662 2.90156 13.8585 3.39384C14.3508 3.88613 14.6273 4.55381 14.6273 5.25V7.125H9.37732V5.25ZM19.1273 19.125H4.87732V9.375H19.1273V19.125ZM13.5023 14.25C13.5023 14.5467 13.4143 14.8367 13.2495 15.0834C13.0847 15.33 12.8504 15.5223 12.5763 15.6358C12.3023 15.7494 12.0007 15.7791 11.7097 15.7212C11.4187 15.6633 11.1514 15.5204 10.9417 15.3107C10.7319 15.1009 10.589 14.8336 10.5311 14.5426C10.4733 14.2517 10.503 13.9501 10.6165 13.676C10.73 13.4019 10.9223 13.1676 11.169 13.0028C11.4156 12.838 11.7056 12.75 12.0023 12.75C12.4001 12.75 12.7817 12.908 13.063 13.1893C13.3443 13.4706 13.5023 13.8522 13.5023 14.25Z" fill="black"/>
</svg>
