<svg width="24" height="24" viewBox="0 0 24 24" fill="none" xmlns="http://www.w3.org/2000/svg">
<path d="M21.4954 8.47499C22.3019 10.6412 22.3429 13.0182 21.6116 15.211C20.8803 17.4038 19.4207 19.2803 17.4754 20.5288C15.5301 21.7772 13.2161 22.3225 10.918 22.074C8.61989 21.8254 6.47602 20.798 4.8426 19.1625C3.00777 17.3337 1.94372 14.8712 1.86941 12.2817C1.79509 9.69217 2.71618 7.17268 4.44311 5.24168C6.17005 3.31068 8.57145 2.11507 11.1532 1.90089C13.7349 1.68672 16.3005 2.47027 18.322 4.0903L20.2064 2.20499C20.311 2.10034 20.4352 2.01733 20.572 1.9607C20.7087 1.90406 20.8552 1.87491 21.0032 1.87491C21.1512 1.87491 21.2978 1.90406 21.4345 1.9607C21.5712 2.01733 21.6955 2.10034 21.8001 2.20499C21.9047 2.30964 21.9878 2.43387 22.0444 2.5706C22.101 2.70733 22.1302 2.85387 22.1302 3.00186C22.1302 3.14986 22.101 3.2964 22.0444 3.43313C21.9878 3.56986 21.9047 3.69409 21.8001 3.79874L12.8001 12.7987C12.6955 12.9034 12.5712 12.9864 12.4345 13.043C12.2978 13.0997 12.1512 13.1288 12.0032 13.1288C11.8552 13.1288 11.7087 13.0997 11.572 13.043C11.4352 12.9864 11.311 12.9034 11.2064 12.7987C11.1017 12.6941 11.0187 12.5699 10.9621 12.4331C10.9054 12.2964 10.8763 12.1499 10.8763 12.0019C10.8763 11.8539 10.9054 11.7073 10.9621 11.5706C11.0187 11.4339 11.1017 11.3096 11.2064 11.205L13.4564 8.95499C12.8222 8.65201 12.1093 8.55457 11.4171 8.67624C10.7249 8.79792 10.088 9.13264 9.59516 9.63372C9.10235 10.1348 8.77826 10.7772 8.66812 11.4713C8.55797 12.1654 8.66726 12.8766 8.98074 13.5057C9.29422 14.1347 9.79625 14.6501 10.4168 14.9801C11.0373 15.3101 11.7453 15.4381 12.4421 15.3464C13.1389 15.2546 13.7897 14.9476 14.3036 14.4682C14.8175 13.9888 15.1689 13.3609 15.3089 12.6722C15.3678 12.3797 15.5405 12.1225 15.789 11.9573C16.0375 11.7922 16.3415 11.7325 16.634 11.7914C16.9265 11.8503 17.1837 12.023 17.3488 12.2716C17.514 12.5201 17.5737 12.824 17.5148 13.1166C17.2752 14.297 16.6629 15.3694 15.7681 16.1758C14.8734 16.9823 13.7434 17.4802 12.5444 17.5963C11.3455 17.7124 10.141 17.4406 9.10809 16.8208C8.07521 16.2011 7.26856 15.2661 6.80685 14.1536C6.34515 13.041 6.25277 11.8096 6.54332 10.6407C6.83388 9.47169 7.49201 8.42685 8.42086 7.65993C9.34971 6.89301 10.5002 6.44451 11.7031 6.38045C12.9059 6.31638 14.0975 6.64013 15.1026 7.30405L16.7179 5.69436C15.2006 4.56116 13.3257 4.01271 11.4368 4.14952C9.54798 4.28633 7.77168 5.09923 6.43348 6.43926C5.09527 7.77928 4.28477 9.55668 4.15053 11.4457C4.01628 13.3347 4.56728 15.2089 5.70253 16.7247C6.83779 18.2405 8.48127 19.2964 10.3318 19.699C12.1823 20.1015 14.1159 19.8237 15.7783 18.9165C17.4406 18.0093 18.7204 16.5334 19.383 14.7593C20.0456 12.9852 20.0467 11.0317 19.386 9.25686C19.3334 9.1181 19.3088 8.97031 19.3136 8.822C19.3184 8.67368 19.3524 8.52778 19.4138 8.39268C19.4752 8.25759 19.5628 8.13598 19.6714 8.03485C19.78 7.93373 19.9075 7.85509 20.0466 7.80346C20.1857 7.75183 20.3337 7.72823 20.482 7.73403C20.6302 7.73982 20.7759 7.7749 20.9106 7.83723C21.0452 7.89956 21.1662 7.98792 21.2666 8.09721C21.367 8.20651 21.4447 8.33458 21.4954 8.47405V8.47499Z" fill="black"/>
</svg>
